<svg version="1.1" width="804.95" height="699.91" viewBox="0 0 804.95 699.91" xmlns="http://www.w3.org/2000/svg" xmlns:xlink="http://www.w3.org/1999/xlink" overflow="hidden"><style>
.MsftOfcThm_Background1_Fill {
 fill:#FFFFFF; 
}
</style>
<defs></defs><g><path d=" M 91.74 454.93 C 96.97 444.93 102.04 435.03 107.31 425.24 C 121.67 398.57 136 371.89 150.56 345.33 C 174.1 302.4 198.87 260.2 226.76 219.92 C 230.07 215.14 233.66 210.52 237.35 206.03 C 242.91 199.25 250.61 195.52 258.44 192.21 C 276.14 184.72 294.67 179.98 313.42 175.98 C 316.48 175.33 319.53 174.61 323.09 173.8 C 322.24 167.62 321.47 161.72 320.62 155.84 C 318.1 138.38 315.37 120.94 313.04 103.45 C 309.58 77.42 327.47 55.97 351 52.85 C 374.76 49.7 398.48 46.24 422.22 42.9 C 454.03 38.43 485.84 33.91 517.66 29.46 C 538.41 26.56 559.18 23.78 579.93 20.87 C 615.37 15.9 650.81 10.88 686.25 5.87 C 698.77 4.1 711.28 2.15 723.81 0.48 C 750.55 -3.08 771.79 14.06 775.07 40.91 C 777.81 63.37 781.46 85.72 784.62 108.14 C 787.11 125.78 789.4 143.45 791.9 161.09 C 795.77 188.45 799.78 215.79 803.66 243.15 C 804.29 247.6 804.73 252.09 804.93 256.57 C 805.9 278.22 788.79 298.55 765.53 301.16 C 748.5 303.07 731.58 305.9 714.6 308.28 C 691.69 311.5 668.78 314.72 645.87 317.91 C 615.53 322.14 585.19 326.33 554.86 330.56 C 552.9 330.83 550.98 331.31 548.91 331.72 C 548.91 336.01 548.78 339.98 548.93 343.95 C 549.82 368.22 540.68 387.69 521.15 402.2 C 508.15 411.86 494.55 420.48 479.65 426.98 C 470.33 431.05 460.65 433.05 450.49 432.67 C 448.36 432.59 446.24 432.25 443.16 431.92 C 444.95 427.65 446.34 423.84 448.12 420.21 C 453.52 409.17 458.42 397.82 464.73 387.31 C 474.22 371.48 487.8 359.39 503.37 349.63 C 513.24 343.45 523.62 338.08 533.34 331.7 C 545.29 323.85 556.96 315.53 568.39 306.95 C 572.55 303.83 576.67 301.85 581.8 301.18 C 600.28 298.79 618.72 296.16 637.18 293.59 C 669.83 289.04 702.47 284.46 735.12 279.88 C 744.19 278.61 753.25 277.32 762.31 275.98 C 774.59 274.16 781.12 265.62 779.42 253.47 C 775.48 225.28 771.46 197.1 767.49 168.92 C 765.59 155.4 763.75 141.88 761.86 128.36 C 761.73 127.4 761.41 126.46 761.1 125.18 C 624.07 144.42 487.2 163.64 350 182.91 C 355.42 221.53 360.76 259.55 366.18 298.2 C 359.79 301.24 353.69 304.69 347.22 307.11 C 324.47 315.6 301.58 323.74 278.75 332.02 C 277.5 332.47 276.21 332.83 274.99 333.34 C 271.15 334.93 269.54 338.3 270.93 341.73 C 272.16 344.79 275.63 346.24 279.26 345.05 C 286.54 342.68 293.86 340.43 301.03 337.78 C 318.35 331.38 335.6 324.8 352.88 318.27 C 378.33 308.65 399.55 293.18 417.62 272.86 C 431.23 257.55 446.19 243.5 462.73 231.29 C 481.76 217.24 502.02 205.6 525.48 200.72 C 531.13 199.54 537.06 199.05 542.84 199.18 C 563.5 199.64 576.01 211.98 579.68 231.28 C 583.56 251.72 578.07 270.15 566.34 286.98 C 555.12 303.08 539.77 314.15 522.87 323.59 C 501.64 335.45 480.65 347.67 464.55 366.66 C 453.87 379.26 445.99 393.37 439.62 408.47 C 424.53 444.22 408.61 479.56 387.21 512.11 C 372.14 535.02 355.13 556.24 333.87 573.88 C 315.04 589.5 293.88 600.82 270.93 608.83 C 258.55 613.15 245.87 616.61 233.31 620.43 C 231.89 620.86 230.4 621.04 228.48 621.43 C 182.95 566.03 137.45 510.6 91.74 454.93 Z M 341.9 125.38 C 479.18 106.1 615.89 86.9 752.81 67.67 C 752.81 66.32 752.91 65.5 752.8 64.72 C 751.67 56.65 750.78 48.52 749.27 40.52 C 747.26 29.94 738.79 24.09 728.03 25.49 C 720.27 26.5 712.55 27.75 704.8 28.82 C 673.63 33.13 642.45 37.37 611.29 41.73 C 589.86 44.72 568.46 47.9 547.03 50.92 C 523.8 54.19 500.55 57.33 477.32 60.58 C 454.74 63.74 432.17 66.99 409.59 70.19 C 390.97 72.82 372.34 75.39 353.73 78.07 C 344.74 79.36 337.34 87.7 338.08 96.56 C 338.85 105.94 340.52 115.27 341.9 125.38 Z" stroke="none" stroke-width="1" stroke-dasharray="" stroke-dashoffset="1" fill="#FFFFFF" fill-opacity="1"/><path d=" M 164.83 699.9 C 157.78 700.05 152.79 696.93 148.66 691.88 C 135.07 675.26 121.4 658.7 107.78 642.1 C 73.68 600.54 39.75 558.84 5.39 517.5 C -2.29 508.26 -2.1 495.26 8.15 487.25 C 21.78 476.6 34.93 465.34 48.39 454.47 C 58.77 446.08 69.53 447.36 78.05 457.76 C 95.66 479.25 113.27 500.74 130.9 522.22 C 160.47 558.24 190.07 594.24 219.6 630.29 C 221.69 632.84 223.85 635.54 225.11 638.53 C 228.42 646.44 226.13 654.91 219.33 660.56 C 205.25 672.26 191.07 683.84 176.89 695.43 C 173.31 698.35 169.23 700.1 164.83 699.9 Z" stroke="none" stroke-width="1" stroke-dasharray="" stroke-dashoffset="1" fill="#FFFFFF" fill-opacity="1"/><path d=" M 422.98 475.37 C 428.31 464.07 432.97 454.2 437.75 444.08 C 439.29 444.16 440.77 444.14 442.21 444.34 C 460.02 446.84 476.69 443.22 492.29 434.65 C 503.2 428.65 513.84 422.16 525.42 415.41 C 524.18 420.8 523.34 425.94 521.77 430.86 C 520.32 435.43 518.07 439.75 516.21 444.19 C 513.58 450.47 508.01 453.52 502.58 456.79 C 484.81 467.52 465.94 475.07 444.97 476.01 C 438.06 476.33 431.11 475.64 422.98 475.37 Z" stroke="none" stroke-width="1" stroke-dasharray="" stroke-dashoffset="1" fill="#FFFFFF" fill-opacity="1"/><path d=" M 507.33 468.78 C 504.7 483.12 497.41 493.15 486.22 500.54 C 468.74 512.09 449.24 514.82 428.89 513.43 C 422.1 512.96 415.34 511.82 408.59 510.89 C 407.02 510.68 405.49 510.11 403.7 509.64 C 408.3 501.62 412.67 494.01 417.17 486.18 C 449.54 493.65 478.68 484.44 507.33 468.78 Z" stroke="none" stroke-width="1" stroke-dasharray="" stroke-dashoffset="1" fill="#FFFFFF" fill-opacity="1"/></g></svg>