<svg version="1.1" width="616.58" height="433.17" viewBox="0 0 616.58 433.17" xmlns="http://www.w3.org/2000/svg" xmlns:xlink="http://www.w3.org/1999/xlink" overflow="hidden"><style>
.MsftOfcThm_Background1_lumMod_95_Fill {
 fill:#F2F2F2; 
}
</style>
<defs></defs><g><path d=" M 112.11 298.64 L 112.11 370.26 C 112.11 390.61 107.13 406.07 97.16 416.66 C 87.19 427.25 73.49 432.54 56.05 432.54 C 38.61 432.54 24.91 427.25 14.94 416.66 C 4.98 406.07 0 390.61 0 370.26 L 0 139.82 C 0 119.47 4.98 104.01 14.95 93.42 C 24.91 82.83 38.62 77.54 56.06 77.54 C 73.5 77.54 87.2 82.83 97.17 93.42 C 107.13 104.01 112.12 119.47 112.12 139.82 L 112.12 267.5 L 40.48 267.5 L 40.48 370.26 C 40.48 384.79 45.67 392.06 56.05 392.06 C 66.43 392.06 71.62 384.79 71.62 370.26 L 71.62 298.64 L 112.11 298.64 Z M 40.48 227.01 L 71.62 227.01 L 71.62 139.82 C 71.62 125.29 66.43 118.02 56.05 118.02 C 45.67 118.02 40.48 125.29 40.48 139.82 L 40.48 227.01 Z" stroke="none" stroke-width="1" stroke-dasharray="" stroke-dashoffset="1" fill="#F2F2F2" fill-opacity="1"/><path d=" M 249.13 293.03 L 249.13 370.88 C 249.13 391.22 244.15 406.69 234.18 417.28 C 224.21 427.87 210.51 433.16 193.07 433.16 C 175.63 433.16 161.93 427.87 151.96 417.28 C 141.99 406.69 137.01 391.23 137.01 370.88 L 137.01 140.44 C 137.01 120.09 141.99 104.63 151.96 94.04 C 161.92 83.45 175.63 78.16 193.07 78.16 C 210.51 78.16 224.21 83.45 234.18 94.04 C 244.14 104.63 249.13 120.09 249.13 140.44 L 249.13 212.06 L 208.65 212.06 L 208.65 140.44 C 208.65 125.91 203.46 118.64 193.08 118.64 C 182.7 118.64 177.51 125.91 177.51 140.44 L 177.51 370.88 C 177.51 385.41 182.7 392.68 193.08 392.68 C 203.46 392.68 208.65 385.41 208.65 370.88 L 208.65 293.03 L 249.13 293.03 Z" stroke="none" stroke-width="1" stroke-dasharray="" stroke-dashoffset="1" fill="#F2F2F2" fill-opacity="1"/><path d=" M 342.55 223.9 L 342.55 139.82 C 342.55 125.29 337.36 118.02 326.98 118.02 C 323.66 118.02 320.75 119.68 318.26 123 C 315.77 126.32 314.52 131.93 314.52 139.82 L 314.52 189.65 L 274.04 189.65 L 274.04 139.82 C 274.04 119.47 278.92 104.01 288.68 93.42 C 298.44 82.83 311.21 77.54 326.98 77.54 C 344.42 77.54 358.12 82.83 368.09 93.42 C 378.05 104.01 383.04 119.47 383.04 139.82 L 383.04 423.2 L 345.67 423.2 L 345.67 410.74 L 342.56 410.74 C 340.48 414.89 338.2 418.42 335.71 421.33 C 333.22 424.65 330.21 427.35 326.68 429.43 C 323.15 431.51 319.1 432.54 314.54 432.54 C 303.74 432.54 293.78 427.25 284.64 416.66 C 275.5 406.07 270.94 390.61 270.94 370.26 L 270.94 286.18 C 270.94 265.83 275.92 250.37 285.89 239.78 C 295.85 229.19 309.56 223.9 327 223.9 L 342.55 223.9 Z M 326.98 264.38 C 316.6 264.38 311.41 271.65 311.41 286.18 L 311.41 370.26 C 311.41 378.15 312.66 383.75 315.15 387.08 C 317.64 390.4 320.55 392.06 323.87 392.06 C 327.19 392.06 330 391.13 332.28 389.26 C 334.56 387.39 336.54 385.21 338.2 382.72 C 339.86 379.81 341.31 376.7 342.56 373.38 L 342.56 264.38 L 326.98 264.38 Z" stroke="none" stroke-width="1" stroke-dasharray="" stroke-dashoffset="1" fill="#F2F2F2" fill-opacity="1"/><path d=" M 495.13 118.02 L 482.67 118.02 C 476.44 118.02 471.15 119.27 466.79 121.76 C 462.43 124.25 459 127.16 456.51 130.48 C 453.19 134.22 450.49 138.37 448.41 142.94 L 448.41 423.2 L 407.93 423.2 L 407.93 86.88 L 445.3 86.88 L 445.3 102.45 L 448.41 102.45 C 450.49 97.88 453.18 93.73 456.51 89.99 C 459 86.67 462.43 83.76 466.79 81.27 C 471.15 78.78 476.44 77.53 482.67 77.53 L 495.13 77.53 L 495.13 118.02 Z" stroke="none" stroke-width="1" stroke-dasharray="" stroke-dashoffset="1" fill="#F2F2F2" fill-opacity="1"/><path d=" M 504.47 139.82 C 504.47 119.47 509.04 104.01 518.17 93.42 C 527.3 82.83 537.27 77.54 548.07 77.54 C 551.81 77.54 555.23 78.37 558.35 80.03 C 561.46 81.69 564.06 83.35 566.14 85.01 C 568.63 87.5 570.91 90.2 572.99 93.11 L 576.1 93.11 L 576.1 0 L 616.58 0 L 616.58 432.2 L 579.21 432.2 L 579.21 410.74 L 576.1 410.74 C 574.02 414.89 571.74 418.42 569.25 421.33 C 566.76 424.65 563.75 427.35 560.22 429.43 C 556.69 431.51 552.64 432.54 548.08 432.54 C 537.28 432.54 527.32 427.25 518.18 416.66 C 509.04 406.07 504.48 390.61 504.48 370.26 L 504.48 139.82 Z M 544.95 370.26 C 544.95 378.15 546.2 383.75 548.69 387.08 C 551.18 390.4 554.09 392.06 557.41 392.06 C 560.73 392.06 563.54 391.13 565.82 389.26 C 568.1 387.39 570.08 385.21 571.74 382.72 C 573.4 379.81 574.85 376.7 576.1 373.38 L 576.1 136.7 C 574.85 133.38 573.4 130.26 571.74 127.36 C 569.66 124.87 567.59 122.69 565.51 120.82 C 563.43 118.95 560.74 118.02 557.41 118.02 C 554.09 118.02 551.18 119.68 548.69 123 C 546.2 126.32 544.95 131.93 544.95 139.82 L 544.95 370.26 Z" stroke="none" stroke-width="1" stroke-dasharray="" stroke-dashoffset="1" fill="#F2F2F2" fill-opacity="1"/></g></svg>